<svg id="Layer_1" data-name="Layer 1" xmlns="http://www.w3.org/2000/svg" viewBox="0 0 436.72 693.27"><defs><style>.cls-1{fill:#496c79;}.cls-2{fill:#486b78;}.cls-3{fill:#4a6e7c;}.cls-4{fill:#4c707e;}.cls-5{fill:#3b6269;}.cls-6{fill:#436873;}.cls-7{fill:#3a6269;}.cls-8{fill:#3c626c;}.cls-9{fill:#466973;}.cls-10{fill:#416670;}.cls-11{fill:#486b75;}.cls-12{fill:#3b626b;}.cls-13{fill:#4a6d7b;}.cls-14{fill:#446974;}.cls-15{fill:#466a75;}.cls-16{fill:#557682;}.cls-17{fill:#658491;}.cls-18{fill:#5a7781;}.cls-19{fill:#6b8994;}.cls-20{fill:#4f7181;}</style></defs><title>human</title><g id="K1YDRd"><path class="cls-1" d="M584.46,717.4c-1.36,24.71,10.94,39.74,36.18,41.63,15.46,1.15,26,8.61,32.16,21.47,10.1,21.14,26.19,36.79,43.3,51.82a47.12,47.12,0,0,1,3.3,3.54l0.16,15.77,6.54,13.11c-1.77,5.68,4.65,14.71-6.73,16.44-3-2.29-6.64-4.06-8.77-7-13.69-18.61-31.78-32.21-50.36-45.32l2.53-4.77L637,826.26c-5.92-6.52-9.42-2.59-12.56,2.91l-0.18-10.26c-2-3.66-3.17-8.42-6.2-10.79-26.57-20.8-58.18-25.94-88.1-4.8-11.07,7.82-19.2,21.48-35.66,19.72-16.11,11.53-32.35,22.89-48.25,34.71-4.2,3.12-7.35,7.66-11,11.55-0.09-4-1.86-9.23,0-11.77,9.33-12.66,13.2-26.07,9.09-41.46,3.67-4.63,7.54-9.12,11-13.92,4.29-6,8.88-12,12.18-18.52,7-14,17.07-22.09,33.27-24.94,11.16-2,22.43-7.77,31.74-14.5,10.41-7.53,6.25-19.53,3.9-30.12,10.32-1,13.54,9.07,18.19,14.25,5.39,6,6,4,10.46.5C570.81,724.22,577.88,721.13,584.46,717.4Z" transform="translate(-343.18 -648.27)"/><path class="cls-2" d="M621.69,982.33c6.38,26,10.83,52,5.78,78.83-3.6-1.85-7.09-5-10.83-5.31a240.28,240.28,0,0,0-28.17-.57c-2.15,0-5.45,1.5-6.18,3.19-4.41,10.21-5.47,4.79-8.05-1-0.82-1.84-5.5-1.95-8.42-2.85l-4.7-36.36-7.86,51c-7.35-5.14-14.5-10.58-22.08-15.33-9.35-5.85-19-11.28-28.68-16.55-2.63-1.43-5.93-1.66-8.92-2.43l9.4-68.83c9.16-1.51,13.91,5.15,18.86,10.72,11.09,12.47,26.63,19.21,41.33,20.64,13.33,1.3,29-1,41.78-9.86C609.55,984.48,616.05,984,621.69,982.33Z" transform="translate(-343.18 -648.27)"/><path class="cls-3" d="M621.69,982.33c-5.64,1.7-12.14,2.15-16.75,5.33-12.83,8.84-28.45,11.16-41.78,9.86-14.7-1.43-30.24-8.17-41.33-20.64-4.95-5.57-9.7-12.23-18.86-10.72l4.31-32.58-0.05-3.47L507.5,904l1.71-7.27,0.07-11.8-2.17-10.47L497,828.79c2.36,1.31,5.2,2.17,7,4,8.15,8.3,9.35,8.4,16.19,0,25-30.73,50.85-35.17,86.11-14.66,6,3.47,11.77,5.49,18,.75l0.18,10.26-0.91,6.23c-0.89.61-2.08,1-2.62,1.86-8.55,13.35-8.84,13.66-19.64,2.64-7.72-7.88-16.21-11.55-27.41-11.39-15.66.22-28.37,7.64-39.56,16.59-5.95,4.75-8.13,14.39-11.59,22a52.59,52.59,0,0,0-4.55,13.79c-1,6.84-2.71,14.36-.91,20.66,4.89,17.08,12.65,32.21,26.19,45.33,15.64,15.16,41.74,19.22,61-2.94,2.58-3,6.44-4.82,9.71-7.19Z" transform="translate(-343.18 -648.27)"/><path class="cls-4" d="M614.16,936.77c-3.27,2.37-7.14,4.22-9.71,7.19-19.26,22.16-45.36,18.1-61,2.94-13.54-13.12-21.3-28.26-26.19-45.33-1.81-6.31-.1-13.83.91-20.66a52.59,52.59,0,0,1,4.55-13.79c3.47-7.62,5.65-17.26,11.59-22,11.19-8.94,23.89-16.37,39.56-16.59,11.2-.16,19.69,3.51,27.41,11.39,10.79,11,11.08,10.7,19.64-2.64,0.54-.84,1.73-1.25,2.62-1.86L613.82,881l-2.65.14c-6.41-7.31-13.13-14.38-19.17-22-9.91-12.49-24-14.61-36.87-5.25-14.58,10.61-18.59,26-19.16,42.72-0.66,19.13,13.74,35.65,31.35,36.88,22.36,1.57,31.32-6.61,34-31.09,0.72-6.5.93-13.33,9.55-14.69l2.69,9.77Z" transform="translate(-343.18 -648.27)"/><path class="cls-5" d="M539.06,1208.49c-5.9,31.66,2,62.47,5.23,93.63,1,9.83-1.53,20.47-4.5,30.1-1.83,5.94-7.38,10.79-15.48,8.91-3.66-.85-7.54-0.76-11.27-1.37-15-2.47-17.79-8.59-8.37-20.68,6.13-7.87,5.82-16.29,7.45-25.36,5.14-28.57-4.43-54.91-8.14-82.13,4.51-.3,2-13.79,7.82-6.58C521,1216.51,529.81,1209.61,539.06,1208.49Z" transform="translate(-343.18 -648.27)"/><path class="cls-6" d="M584.46,717.4c-6.57,3.73-13.65,6.81-19.56,11.39-4.48,3.47-5.07,5.52-10.46-.5-4.65-5.18-7.86-15.29-18.19-14.25-8.14-7.33-13.79-14.66-4.4-25.55,2.2-2.55.5-8.36,0.81-12.65,1.3-17.91,12-28,29.28-27.57,16.38,0.36,25.78,10.31,26.83,28,0.36,6,.64,11.14,4.74,17.3C599.12,702,589.43,710,584.46,717.4Z" transform="translate(-343.18 -648.27)"/><path class="cls-6" d="M493.57,1035c3,0.78,6.28,1,8.92,2.43,9.69,5.27,19.33,10.7,28.68,16.55,7.59,4.75,14.74,10.19,22.08,15.33-2.43,18.71-4.52,37.47-7.5,56.09-1,6.12-4.28,11.86-6.52,17.78-1.29-4.65-2.25-9.43-3.93-13.93-2.5-6.68-13.71-13.29-19.76-11.84-8.93,2.14-9.31,8.89-9.21,16.47,0.06,5.17-1.51,10.37-2.35,15.55,1.74-24.6-2.38-48.45-7.61-72.43C493.42,1063.43,494.37,1049,493.57,1035Z" transform="translate(-343.18 -648.27)"/><path class="cls-7" d="M617.42,1211.8c-2.66,14.9-6.65,29.7-7.64,44.71-1.12,17-.28,34.33,1.25,51.37,0.46,5.18,6.24,9.77,9.19,14.86,4.69,8.11,2.74,13.62-6.19,16-6.22,1.65-13.13,3.56-19.13,2.35-5-1-11.68-5.62-13-10a101.59,101.59,0,0,1-3.69-41.76c3-24.62,4.2-49.44,6.17-74.18,3.17,0.41,7.6-.37,9.3,1.43,6.38,6.75,11.19,3.42,16.58-1C612.29,1213.88,615,1213,617.42,1211.8Z" transform="translate(-343.18 -648.27)"/><path class="cls-8" d="M504,1149.42c0.84-5.18,2.41-10.38,2.35-15.55-0.1-7.58.28-14.33,9.21-16.47,6.05-1.45,17.26,5.17,19.76,11.84,1.69,4.5,2.65,9.28,3.93,13.93,1.28,10.12,3.64,20.26,3.55,30.37-0.11,11.66-2.39,23.3-3.72,34.95-9.26,1.12-18,8-27.25-3.49-5.79-7.21-3.32,6.28-7.82,6.58C497.93,1190.86,498.47,1170.14,504,1149.42Z" transform="translate(-343.18 -648.27)"/><path class="cls-9" d="M414.29,887.56l-12.13,10.17c-3.25.92-11-3.77-7.29,5.84-3.12,3-6.31,5.93-9.35,9-5.19,5.23-8.67,10.34-5.06,18.69,2.2,5.09,1.37,11.61,1.4,17.48,0,4.77-3.52,8.49-6.81,4.18-4.84-6.37-6.14-4.69-8.45,1.09-2.38,6-4.89,11.89-7.8,17.6A57.8,57.8,0,0,1,351,983.75c-1.73,2-5.14,2.43-7.79,3.57,0.21-2.52,0-5.16.68-7.55,3.93-14,9.53-27.76,11.74-42,2.36-15.25,9.21-27.47,18.2-39.23s17.41-23.53,26.09-35.32l1.79,1.58,1.06,4.28,2.18-4.31h0l5.49-4-5.34-2.4-0.94-.89,20.28-22.84c-0.52,4.57-2.18,9.36-1.38,13.68,4,21.89,3.92,22.56-16.28,32.78-0.46.23-1.24,0.06-1.54,0.38-1,1.08-2.91,2.78-2.63,3.38,0.81,1.75,2.4,4.17,3.91,4.33C409,889.45,411.69,888.18,414.29,887.56Z" transform="translate(-343.18 -648.27)"/><path class="cls-10" d="M582.34,1156.21c-3-16.05-6-32.1-8.81-48.17-0.45-2.57-.19-5.26-0.26-7.89l-0.39-6.09-0.28-6.68c5.92-.39,12.68.93,17.6-1.49,12.26-6,22.5-4.3,32.27,4.4a172,172,0,0,0-2.19,72.24c-7.36-9.77-16.32-12.47-27.77-7.1C589.63,1156.78,585.75,1156,582.34,1156.21Z" transform="translate(-343.18 -648.27)"/><path class="cls-11" d="M699.37,881.19c11.39-1.74,5-10.77,6.73-16.44,7,0.7,11.07-1.6,9.48-9.5l0.5-.49c13.76,18.89,28.83,37,40.77,57,7.27,12.17,10.09,27.12,14.21,41,3.35,11.31,5.65,22.93,8.84,36.13-8.83-2.08-12.76-8.48-16-15.71-2.65-5.88-5.41-11.72-8-17.63-2.16-4.95-3.8-11.31-9.22-2.18-2.24-1.36-6.29-2.59-6.4-4.09-0.4-5.82-1-12.34,1.15-17.47C746,921,739.55,915.27,733,909.52,722,899.85,710.6,890.61,699.37,881.19Z" transform="translate(-343.18 -648.27)"/><path class="cls-12" d="M582.34,1156.21c3.42-.2,7.29.57,10.17-0.79,11.45-5.37,20.41-2.67,27.77,7.1l-2.86,49.28c-2.41,1.23-5.13,2.08-7.17,3.75-5.38,4.4-10.2,7.73-16.58,1-1.7-1.8-6.12-1-9.3-1.43a82.24,82.24,0,0,1-5.35-42.74l2.45-10.27Z" transform="translate(-343.18 -648.27)"/><path class="cls-13" d="M624.26,818.91c-6.21,4.74-12,2.71-18-.75-35.26-20.51-61.08-16.08-86.11,14.66-6.85,8.41-8,8.3-16.19,0-1.82-1.85-4.65-2.71-7-4L494.31,823c16.46,1.77,24.59-11.9,35.66-19.72,29.92-21.14,61.53-16,88.1,4.8C621.09,810.48,622.24,815.25,624.26,818.91Z" transform="translate(-343.18 -648.27)"/><path class="cls-14" d="M622.47,1090.28c-9.77-8.7-20-10.43-32.27-4.4-4.92,2.42-11.68,1.11-17.6,1.49l-1-6.46,3.11-10.66-5.53,3.84-0.61-6.2-2.4-9.88-0.32-3.39c2.92,0.9,7.6,1,8.42,2.85,2.58,5.79,3.65,11.2,8.05,1,0.73-1.69,4-3.14,6.18-3.19a240.28,240.28,0,0,1,28.17.57c3.75,0.36,7.23,3.46,10.83,5.31Z" transform="translate(-343.18 -648.27)"/><path class="cls-15" d="M414.29,887.56c-2.6.62-5.27,1.89-7.77,1.61-1.51-.17-3.1-2.58-3.91-4.33-0.28-.6,1.61-2.3,2.63-3.38,0.3-.32,1.07-0.14,1.54-0.38,20.2-10.22,20.33-10.89,16.28-32.78-0.8-4.33.85-9.11,1.38-13.68l19.76-18.56c4.11,15.39.25,28.81-9.09,41.46-1.88,2.54-.11,7.78,0,11.77l-16.91,15.13-3.51,2.85Z" transform="translate(-343.18 -648.27)"/><path class="cls-11" d="M699.56,851.64l-0.16-15.77,16.69,18.89-0.5.49Z" transform="translate(-343.18 -648.27)"/><path class="cls-16" d="M569.14,1074.1l5.53-3.84-3.11,10.66Z" transform="translate(-343.18 -648.27)"/><path class="cls-17" d="M613.6,897.47l-2.69-9.77,0.27-6.59,2.65-.14Z" transform="translate(-343.18 -648.27)"/><path class="cls-18" d="M394.87,903.57c-3.71-9.61,4-4.92,7.29-5.84Z" transform="translate(-343.18 -648.27)"/><path class="cls-13" d="M637,826.26l5.77-2.11-2.53,4.77Z" transform="translate(-343.18 -648.27)"/><path class="cls-2" d="M566.13,1058l2.4,9.88Z" transform="translate(-343.18 -648.27)"/><path class="cls-19" d="M507.12,874.51L509.28,885Z" transform="translate(-343.18 -648.27)"/><path class="cls-10" d="M581.48,1162.1L579,1172.37Z" transform="translate(-343.18 -648.27)"/><path class="cls-19" d="M509.21,896.78L507.5,904Z" transform="translate(-343.18 -648.27)"/><path class="cls-14" d="M572.87,1094.06l0.39,6.09Z" transform="translate(-343.18 -648.27)"/><path class="cls-9" d="M399.89,863.19l4.25-5.74,0.94,0.89-0.15,6.38h0q-1.62,0-3.23,0Z" transform="translate(-343.18 -648.27)"/><path class="cls-19" d="M507.23,930.11l0.05,3.47Z" transform="translate(-343.18 -648.27)"/><path class="cls-9" d="M414.66,887.28l3.51-2.85Z" transform="translate(-343.18 -648.27)"/><path class="cls-14" d="M699.56,851.64l16,3.61c1.59,7.9-2.44,10.2-9.48,9.5Z" transform="translate(-343.18 -648.27)"/><path class="cls-20" d="M611.17,881.11l-0.27,6.59c-8.62,1.36-8.83,8.19-9.55,14.69-2.72,24.48-11.67,32.66-34,31.09-17.61-1.23-32-17.75-31.35-36.88,0.58-16.67,4.58-32.11,19.16-42.72,12.86-9.36,27-7.24,36.87,5.25C598,866.73,604.76,873.8,611.17,881.11Z" transform="translate(-343.18 -648.27)"/><path class="cls-15" d="M404.93,864.73l0.15-6.38,5.34,2.4Z" transform="translate(-343.18 -648.27)"/><path class="cls-15" d="M401.68,864.77q1.62,0,3.23,0l-2.18,4.31Z" transform="translate(-343.18 -648.27)"/></g></svg>